<svg width="11" height="11" viewBox="0 0 11 11" fill="none" xmlns="http://www.w3.org/2000/svg">
<path opacity="0.1" fill-rule="evenodd" clip-rule="evenodd" d="M0 5.34186C0 2.39163 2.39163 0 5.34186 0C8.2921 0 10.6837 2.39163 10.6837 5.34186C10.6837 8.2921 8.2921 10.6837 5.34186 10.6837C2.39163 10.6837 0 8.2921 0 5.34186Z" fill="white"/>
<path fill-rule="evenodd" clip-rule="evenodd" d="M5.18184 4.34195L5.19305 4.5268L5.00623 4.50416C4.32618 4.4174 3.73207 4.12316 3.22764 3.629L2.98103 3.3838L2.91751 3.56487C2.78299 3.9685 2.86893 4.39477 3.14917 4.68146C3.29863 4.83989 3.26501 4.86253 3.00719 4.76822C2.91751 4.73804 2.83904 4.71541 2.83157 4.72672C2.80541 4.75313 2.89509 5.09641 2.96608 5.23221C3.06323 5.42082 3.26127 5.60566 3.47799 5.71506L3.66108 5.80182L3.44436 5.80559C3.23511 5.80559 3.22764 5.80936 3.25006 5.88858C3.32479 6.13378 3.61998 6.39406 3.94879 6.50723L4.18045 6.58645L3.97868 6.70716C3.67976 6.88068 3.32853 6.97876 2.97729 6.98631C2.80915 6.99008 2.6709 7.00517 2.6709 7.01648C2.6709 7.05421 3.12675 7.26545 3.39205 7.34844C4.18793 7.59364 5.13327 7.48802 5.84321 7.0693C6.34764 6.77129 6.85207 6.17904 7.08747 5.60566C7.21451 5.30011 7.34155 4.74181 7.34155 4.47398C7.34155 4.30046 7.35276 4.27783 7.56201 4.07035C7.68531 3.94964 7.80115 3.81761 7.82357 3.77989C7.86093 3.70822 7.85719 3.70822 7.66663 3.77234C7.34903 3.88551 7.30419 3.87042 7.46112 3.70067C7.57695 3.57996 7.71521 3.36117 7.71521 3.29704C7.71521 3.28572 7.65916 3.30458 7.59564 3.33853C7.52838 3.37626 7.37892 3.43284 7.26682 3.46679L7.06505 3.53092L6.88196 3.40644C6.78108 3.33853 6.63909 3.26309 6.56436 3.24046C6.37379 3.18764 6.08234 3.19519 5.91046 3.25554C5.4434 3.4253 5.14821 3.86288 5.18184 4.34195Z" fill="white"/>
</svg>
