<svg width="11" height="11" viewBox="0 0 11 11" fill="none" xmlns="http://www.w3.org/2000/svg">
<path d="M6.79203 4.88935C6.71165 4.88935 6.637 4.86724 6.57069 4.83169V4.83264C6.57069 4.95912 6.52153 5.0779 6.43233 5.16686C6.34313 5.25606 6.22444 5.30522 6.09811 5.30522C6.01654 5.30522 5.94095 5.28257 5.87393 5.24607C5.86716 5.36178 5.82091 5.46993 5.7384 5.55253C5.6492 5.64173 5.53051 5.69089 5.40409 5.69089C5.15293 5.69089 4.94897 5.49346 4.93427 5.24599C4.85655 5.28799 4.76869 5.31002 4.67807 5.3042C4.431 5.28799 4.2375 5.07452 4.2375 4.81808V2.69247L3.99546 3.11179C3.90328 3.27218 3.73071 3.37176 3.54491 3.37176C3.45437 3.37176 3.36494 3.348 3.28573 3.30262C3.1871 3.24543 3.11654 3.15364 3.0872 3.04382C3.0577 2.93394 3.07296 2.81902 3.12999 2.72053C3.13007 2.72053 3.92192 1.34927 3.97022 1.26504C3.97597 1.25238 3.99233 1.21565 4.00625 1.18434C4.01954 1.15445 4.03095 1.12377 4.04188 1.09294C4.28068 0.418768 4.87197 -1.14441e-05 5.58508 -1.14441e-05C6.51112 -1.14441e-05 7.26451 0.816927 7.26451 1.82109L7.26459 4.41669C7.26459 4.54302 7.21551 4.66171 7.12639 4.751C7.03719 4.8402 6.9185 4.88936 6.79202 4.88936L6.79203 4.88935ZM5.58509 0.251104C4.97234 0.251104 4.48395 0.59721 4.27857 1.17692C4.26544 1.21373 4.25175 1.25054 4.23578 1.28641C4.18945 1.39032 4.18945 1.39032 4.1764 1.40526L4.17467 1.40377C4.11001 1.52577 3.91793 1.85841 3.34742 2.84621C3.32398 2.88672 3.31776 2.93376 3.32972 2.97875C3.34183 3.02374 3.37086 3.06165 3.41105 3.08486C3.53581 3.15651 3.70666 3.11026 3.77776 2.98638L4.25435 2.16124C4.28283 2.11208 4.3404 2.08793 4.39562 2.10288C4.45053 2.11759 4.48867 2.16738 4.48867 2.22417V4.81816C4.48867 4.94055 4.58102 5.04618 4.69453 5.05365C4.75997 5.05711 4.82101 5.03517 4.86687 4.98939C4.90856 4.9477 4.93153 4.89217 4.93153 4.83278V3.13628C4.93153 3.0669 4.98777 3.01066 5.05714 3.01066C5.12652 3.01066 5.18276 3.06682 5.18276 3.13628L5.18268 5.21839C5.18268 5.34047 5.28203 5.43982 5.4041 5.43982C5.46341 5.43982 5.5191 5.41685 5.56087 5.37516C5.60256 5.33339 5.62553 5.2777 5.62553 5.21839V3.13628C5.62553 3.0669 5.68169 3.01066 5.75114 3.01066C5.82052 3.01066 5.87676 3.06682 5.87676 3.13628L5.87668 4.81327V4.83277C5.87668 4.95477 5.97603 5.05411 6.09819 5.05411C6.15742 5.05411 6.21295 5.03107 6.25495 4.98922C6.29664 4.94761 6.31961 4.89208 6.31961 4.83269V3.13619C6.31961 3.06681 6.37577 3.01057 6.44523 3.01057C6.5146 3.01057 6.57084 3.06673 6.57084 3.13619L6.57069 4.41675C6.57069 4.53891 6.67003 4.63825 6.79203 4.63825C6.85141 4.63825 6.90695 4.61521 6.94863 4.5736C6.99048 4.53175 7.01337 4.47606 7.01337 4.41675L7.01345 1.82115C7.01345 0.955526 6.3727 0.25113 5.58508 0.25113L5.58509 0.251104Z" fill="#4CAF4F"/>
<path d="M7.26481 1.82077L7.25602 1.63522C7.1699 0.718064 6.45326 0.000524344 5.58512 0.000457764C4.87201 0.000457764 4.28095 0.419061 4.04215 1.09323C4.03126 1.12395 4.01926 1.15427 4.00602 1.18405C3.9921 1.21536 3.97563 1.25244 3.96989 1.26511C3.92113 1.35011 3.14385 2.69642 3.13005 2.72018C3.07308 2.81856 3.05772 2.93366 3.08708 3.04343C3.11638 3.15309 3.1869 3.24501 3.28532 3.30222C3.36453 3.3476 3.45455 3.37155 3.54508 3.37155C3.73077 3.37146 3.90313 3.27207 3.99528 3.11179L4.23747 2.69284V4.81784C4.23747 5.07425 4.43087 5.28792 4.6779 5.30417C4.76846 5.30999 4.85608 5.28752 4.93376 5.24557C4.94846 5.49304 5.1533 5.69089 5.40446 5.69089C5.53071 5.69077 5.64935 5.64131 5.73844 5.55222C5.82071 5.46975 5.86733 5.36198 5.87419 5.24655C5.94103 5.28287 6.01652 5.30511 6.09782 5.30515C6.22414 5.30515 6.34261 5.25565 6.4318 5.16647C6.521 5.07751 6.57048 4.95897 6.57048 4.83249C6.63678 4.86804 6.71177 4.88913 6.79215 4.88913C6.91841 4.88907 7.03703 4.84039 7.12614 4.75143C7.21526 4.66215 7.26481 4.5428 7.26481 4.41647V1.82077ZM6.57048 3.1362C6.57048 3.06686 6.5147 3.0104 6.44548 3.01022L6.39665 3.01999C6.35127 3.03893 6.3195 3.08396 6.3195 3.1362V4.83249C6.3195 4.89172 6.29653 4.94717 6.25505 4.98874C6.21304 5.03059 6.15705 5.05417 6.09782 5.05417C5.97579 5.05401 5.87614 4.95439 5.87614 4.83249L5.87712 3.1362L5.86637 3.08737C5.84728 3.04237 5.80309 3.01025 5.75114 3.01022L5.70231 3.02097C5.67221 3.0337 5.64761 3.05726 5.63493 3.08737L5.62516 3.1362V5.21823C5.62516 5.27754 5.6024 5.33369 5.56071 5.37546C5.51906 5.41692 5.46351 5.4398 5.40446 5.43991C5.28238 5.43991 5.18278 5.34031 5.18278 5.21823V3.1362L5.17301 3.08737C5.15397 3.04223 5.10887 3.01022 5.0568 3.01022L5.00797 3.02097C4.9781 3.0337 4.95425 3.05747 4.94157 3.08737L4.9318 3.1362V4.83249C4.9318 4.89188 4.90806 4.94803 4.86637 4.98972C4.82056 5.03524 4.75976 5.05664 4.6945 5.05319C4.58099 5.04572 4.48844 4.94023 4.48844 4.81784V2.22409C4.48841 2.16738 4.45047 2.11775 4.39567 2.103C4.34045 2.08805 4.28254 2.11243 4.25407 2.16159L3.77751 2.98679C3.70628 3.11036 3.53591 3.15597 3.4113 3.08444C3.37114 3.06126 3.3414 3.02392 3.32926 2.97897C3.31731 2.93398 3.32438 2.88667 3.34782 2.84616C3.91822 1.85855 4.11032 1.52577 4.17497 1.40378L4.17594 1.40573C4.18899 1.3908 4.18928 1.39028 4.23551 1.28659C4.25144 1.25081 4.26538 1.21394 4.27848 1.17722C4.48386 0.597506 4.97237 0.251434 5.58512 0.251434C6.32338 0.251501 6.93264 0.870134 7.00602 1.66061L7.01383 1.82077L7.01286 4.41647C7.01286 4.47578 6.99025 4.53185 6.9484 4.5737C6.90678 4.61518 6.8514 4.6381 6.79215 4.63815C6.67016 4.63815 6.57048 4.53863 6.57048 4.41647V3.1362Z" fill="#4CAF4F"/>
<path d="M1.85662 6.69339L3.67944 5.59987C3.89921 5.46788 4.18198 5.52397 4.32294 5.72761C4.37438 5.80179 4.40065 5.88823 4.40474 5.97626C4.4727 5.94079 4.54664 5.92151 4.62191 5.92151C4.66046 5.92151 4.69916 5.92631 4.73739 5.93583C4.85986 5.96643 4.96306 6.04296 5.02796 6.15119C5.09293 6.25958 5.11188 6.3866 5.08128 6.50893C5.05305 6.62212 4.98422 6.71739 4.88849 6.78275C4.95543 6.82224 5.01317 6.87612 5.05423 6.94471C5.1192 7.0531 5.13816 7.18006 5.10764 7.30253C5.07704 7.42485 5.0005 7.52804 4.89211 7.5931L4.89149 7.5935C4.95724 7.6329 5.01396 7.68624 5.05454 7.7538C5.1196 7.86219 5.13855 7.98922 5.10795 8.11169C5.07728 8.23408 5.00074 8.33728 4.89251 8.40226L2.66682 9.73749C2.25143 9.9866 1.77121 10.0726 1.31484 9.97937C0.854377 9.88529 0.473032 9.62062 0.24116 9.23408C-0.125788 8.62251 -0.0707949 7.89995 0.384397 7.34847C0.405242 7.3233 0.425771 7.29766 0.444414 7.27107C0.464157 7.24299 0.487204 7.20995 0.495069 7.19863C0.542185 7.11446 1.311 5.72929 1.31092 5.72945C1.38856 5.58936 1.53407 5.51006 1.68415 5.51014C1.75416 5.51014 1.82518 5.52737 1.89071 5.56371C1.96984 5.60791 2.03631 5.67234 2.08279 5.74997C2.17836 5.90926 2.18175 6.10858 2.09176 6.2699L1.85662 6.69339ZM1.86755 5.87911C1.84317 5.83844 1.80966 5.80603 1.76868 5.78306C1.68396 5.73618 1.5773 5.7667 1.53066 5.8511C0.980535 6.8422 0.793003 7.17995 0.720633 7.30015L0.722285 7.30054C0.716228 7.32068 0.716228 7.32068 0.649999 7.4153C0.627502 7.44732 0.60304 7.47807 0.578105 7.50835C0.186692 7.98259 0.141244 8.57938 0.45642 9.10488C0.65165 9.43036 0.974311 9.65352 1.365 9.73328C1.75994 9.81359 2.1762 9.73886 2.53749 9.52209L4.76338 8.18679C4.81419 8.15635 4.85006 8.10798 4.86437 8.05064C4.87869 7.99337 4.8698 7.93383 4.83928 7.88302C4.77651 7.7784 4.6402 7.74403 4.53558 7.80703L3.43752 8.4658C3.37805 8.50151 3.30081 8.48232 3.26518 8.42277C3.22947 8.36331 3.24874 8.28614 3.3082 8.25043L4.40635 7.59167L4.76299 7.37772C4.8138 7.3472 4.84975 7.29882 4.86406 7.24164C4.87838 7.1843 4.86949 7.12467 4.83897 7.07394C4.77612 6.96925 4.63981 6.93519 4.53527 6.99796L3.08049 7.87067C3.02087 7.90646 2.94386 7.88711 2.90815 7.82765C2.87244 7.76818 2.89179 7.69102 2.95117 7.65531L4.73664 6.58423C4.78745 6.55371 4.82332 6.50541 4.83764 6.44807C4.85195 6.3908 4.84306 6.33126 4.81262 6.28045C4.78218 6.22971 4.73381 6.19385 4.67647 6.17953C4.61881 6.16521 4.5595 6.1741 4.50884 6.20447L4.17832 6.40276C4.17824 6.40276 4.17825 6.40284 4.17817 6.40284H4.17809L2.72339 7.27556C2.66376 7.31143 2.58668 7.29208 2.55105 7.23253C2.51534 7.17307 2.53468 7.0959 2.59407 7.06019L4.04885 6.18748C4.09967 6.15696 4.13561 6.10858 4.14993 6.0514C4.16566 5.98863 4.1537 5.92444 4.11642 5.87064C4.05176 5.77712 3.91348 5.75226 3.80863 5.81527L1.58435 7.14963C1.53566 7.17873 1.47329 7.17166 1.43246 7.13225C1.39156 7.09276 1.38236 7.0307 1.40989 6.98107L1.87241 6.14776C1.91881 6.06446 1.917 5.96157 1.86753 5.87914L1.86755 5.87911Z" fill="#4CAF4F"/>
<path d="M1.31445 9.97892C1.77082 10.0721 2.25159 9.98682 2.66699 9.73771L4.89258 8.40275C5.00081 8.33777 5.07772 8.23412 5.1084 8.11173C5.13897 7.98928 5.11972 7.8617 5.05469 7.75333C5.01411 7.6859 4.95726 7.63253 4.8916 7.59318C4.99982 7.5281 5.07685 7.42436 5.10742 7.30216C5.13781 7.17987 5.1195 7.05299 5.05469 6.94474C5.01364 6.87617 4.95557 6.82211 4.88867 6.78263C4.98422 6.71733 5.05279 6.62218 5.08105 6.50919C5.11165 6.38686 5.09329 6.25918 5.02832 6.15079C4.96341 6.04264 4.85972 5.96653 4.7373 5.93595C4.69914 5.92645 4.66054 5.92131 4.62207 5.9213C4.5468 5.9213 4.47226 5.94051 4.40429 5.97599C4.40017 5.88821 4.37446 5.80195 4.32324 5.72794C4.18231 5.52433 3.89944 5.46812 3.67969 5.60001L1.85644 6.69376L2.09179 6.26993C2.1817 6.10876 2.17834 5.90962 2.08301 5.7504C2.03652 5.67277 1.96975 5.60809 1.89062 5.56388C1.82523 5.52761 1.75444 5.51024 1.68457 5.51017C1.53449 5.51009 1.38818 5.58981 1.31054 5.7299C1.29405 5.7596 0.541778 7.11529 0.495115 7.19865C0.487256 7.20996 0.464065 7.24285 0.444333 7.27091C0.425797 7.29735 0.405486 7.32303 0.384763 7.34806C-0.0703829 7.89948 -0.125617 8.62227 0.241208 9.2338C0.473003 9.62021 0.854195 9.88476 1.31445 9.97892ZM2.53711 9.52189C2.1759 9.73855 1.76006 9.81308 1.36523 9.73283C0.974543 9.65306 0.651282 9.43038 0.456052 9.1049C0.140976 8.57943 0.186747 7.9824 0.578122 7.50822C0.60303 7.47796 0.627916 7.44742 0.650388 7.41544C0.716551 7.32091 0.716599 7.32034 0.722654 7.30021H0.720701C0.793069 7.18002 0.980173 6.84203 1.53027 5.85099C1.57686 5.76668 1.68388 5.73597 1.76855 5.78263C1.80953 5.80559 1.8428 5.83865 1.86718 5.87931C1.91666 5.96175 1.91848 6.06457 1.87207 6.14786L1.41015 6.98087C1.38262 7.0305 1.39171 7.09275 1.43261 7.13224C1.47334 7.17149 1.53537 7.17866 1.58398 7.14982L3.80859 5.81486C3.91335 5.75201 4.05153 5.77719 4.11621 5.87052C4.15343 5.92423 4.166 5.98852 4.15039 6.05118C4.13607 6.10837 4.09964 6.15738 4.04883 6.1879L2.59375 7.05997C2.53447 7.09572 2.5151 7.17341 2.55078 7.23283C2.58644 7.2923 2.66404 7.31164 2.72363 7.27579L4.17773 6.40275L4.50879 6.2045C4.55944 6.17414 4.6191 6.1648 4.67676 6.17911C4.73402 6.19346 4.78209 6.22999 4.8125 6.28068C4.84281 6.33133 4.85204 6.39058 4.83789 6.44767C4.82357 6.50501 4.78714 6.55387 4.73633 6.58439L2.95117 7.65568C2.89193 7.69142 2.87256 7.76815 2.9082 7.82755C2.94386 7.88694 3.02049 7.90612 3.08008 7.87052L4.53515 6.99845C4.6396 6.93573 4.77595 6.96916 4.83886 7.07365C4.86937 7.12436 4.87854 7.18429 4.86426 7.24161C4.84994 7.2988 4.81351 7.34684 4.76269 7.37736L3.30859 8.2504C3.26413 8.27711 3.24138 8.32707 3.24804 8.3754L3.26562 8.42325C3.30136 8.4823 3.37824 8.50166 3.4375 8.46622L4.53515 7.80704C4.63976 7.74405 4.77608 7.77863 4.83886 7.88322C4.86932 7.93391 4.87844 7.99306 4.86426 8.05021C4.84996 8.10749 4.8144 8.15648 4.76367 8.18693L2.53711 9.52189Z" fill="#4CAF4F"/>
<path d="M10.5668 9.23399C10.335 9.62059 9.95372 9.88521 9.49318 9.97928C9.03672 10.0723 8.55667 9.98652 8.14119 9.7374L5.9153 8.40211C5.80699 8.33714 5.73038 8.23394 5.6997 8.11138C5.66926 7.98907 5.68829 7.86203 5.75319 7.7538C5.7937 7.68615 5.85049 7.63282 5.91632 7.59341L5.9157 7.59302C5.80738 7.52805 5.73077 7.42485 5.70026 7.30245C5.66958 7.18006 5.68861 7.05294 5.75358 6.94456C5.79543 6.87495 5.85277 6.82052 5.91822 6.7819C5.8232 6.71653 5.75477 6.62159 5.72661 6.50895C5.69593 6.38648 5.71496 6.25944 5.77994 6.1512C5.84483 6.04289 5.94811 5.96636 6.07051 5.93576C6.10873 5.92617 6.14751 5.92145 6.1859 5.92145C6.26125 5.92153 6.33519 5.94064 6.40315 5.97619C6.40732 5.88818 6.43351 5.80173 6.48496 5.72755C6.62599 5.52407 6.90853 5.46775 7.12862 5.59981L8.95138 6.69316L8.71642 6.26997C8.62628 6.10841 8.62958 5.90908 8.72515 5.74972C8.77172 5.67216 8.83826 5.60774 8.91779 5.56315C8.98315 5.52696 9.05395 5.50982 9.12378 5.50982C9.27379 5.50989 9.41947 5.58903 9.49701 5.72912C9.76729 6.2161 10.2773 7.13451 10.3132 7.19863C10.3208 7.20972 10.3438 7.24275 10.3636 7.27083C10.3824 7.2975 10.4027 7.32298 10.4237 7.34831C10.8788 7.90001 10.9337 8.62249 10.5668 9.234L10.5668 9.23399ZM10.2299 7.50839C10.2049 7.47811 10.1803 7.4472 10.158 7.41534C10.09 7.3189 10.0883 7.31639 10.0832 7.29114C10.0038 7.1597 9.80994 6.81078 9.27719 5.85097C9.23047 5.76673 9.12428 5.73598 9.03972 5.7827C8.99811 5.80598 8.96468 5.83847 8.9403 5.87914C8.8909 5.96149 8.88901 6.06438 8.93566 6.14792L9.39801 6.98099C9.42562 7.0307 9.41642 7.09268 9.37559 7.13217C9.33485 7.17173 9.27255 7.17865 9.22363 7.14955L6.99935 5.81518C6.8945 5.75234 6.7563 5.77696 6.69148 5.87056C6.65419 5.92436 6.64232 5.98855 6.65789 6.05124C6.67221 6.1085 6.70815 6.1568 6.75904 6.18732C6.7592 6.1874 6.75928 6.18755 6.75944 6.18763L8.21376 7.06011C8.27322 7.09582 8.2925 7.1729 8.25678 7.23245C8.22107 7.29183 8.14406 7.31126 8.08444 7.27547L6.29898 6.20439C6.24832 6.17403 6.1887 6.16506 6.13144 6.17946C6.07402 6.19377 6.02572 6.22964 5.99528 6.28053C5.96476 6.33126 5.95595 6.39081 5.97011 6.44807C5.98442 6.50534 6.02037 6.55371 6.07118 6.58423L6.41862 6.7926L7.85657 7.65533C7.91603 7.69104 7.93531 7.76813 7.89959 7.82767C7.86388 7.88706 7.78688 7.90641 7.72725 7.8707L6.27263 6.99798C6.16802 6.93505 6.03178 6.96919 5.96885 7.07396C5.93833 7.12478 5.92952 7.18432 5.94368 7.24158C5.958 7.29885 5.99394 7.34714 6.04484 7.37774L6.40147 7.59169L7.49946 8.25046C7.55892 8.28617 7.5782 8.36325 7.54248 8.4228C7.50677 8.48218 7.42976 8.50169 7.37014 8.46582L6.27216 7.80706C6.2215 7.7767 6.16212 7.76773 6.10454 7.78212C6.04727 7.79644 5.99882 7.83231 5.96838 7.88304C5.93794 7.93385 5.92905 7.99348 5.94321 8.05066C5.95753 8.10793 5.99347 8.15622 6.04436 8.18682L8.27025 9.52211C8.63146 9.73882 9.04803 9.81385 9.44274 9.7333C9.83335 9.65354 10.156 9.43039 10.3512 9.1049C10.6667 8.5793 10.6214 7.98245 10.23 7.50838L10.2299 7.50839Z" fill="#4CAF4F"/>
<path d="M8.14152 9.73755C8.55687 9.98647 9.03676 10.0727 9.49303 9.97973C9.95356 9.88565 10.3344 9.62025 10.5662 9.23366C10.9331 8.6222 10.8787 7.89963 10.4237 7.34798C10.4027 7.32271 10.3819 7.29744 10.3631 7.27083C10.3434 7.24284 10.321 7.20968 10.3133 7.19857C10.2775 7.13446 9.7672 6.21586 9.49694 5.72889C9.4194 5.58903 9.27373 5.51031 9.12391 5.51015C9.05418 5.51015 8.98314 5.52682 8.91786 5.56288C8.83852 5.60738 8.77203 5.67208 8.72548 5.7494C8.62992 5.90876 8.62656 6.10833 8.7167 6.26989L8.95106 6.69371L7.12886 5.59999C6.90879 5.46794 6.62637 5.52447 6.48533 5.72792C6.43397 5.80199 6.40753 5.88807 6.40331 5.97596C6.33535 5.94041 6.26089 5.92135 6.18554 5.92127C6.14727 5.9213 6.10842 5.92635 6.07031 5.93592C5.948 5.96654 5.84514 6.04348 5.78028 6.15173C5.71539 6.25993 5.69591 6.38673 5.72657 6.50914C5.75471 6.62161 5.82316 6.71625 5.91797 6.78159C5.85258 6.82019 5.79575 6.87513 5.75392 6.94467C5.68903 7.05292 5.66969 7.17983 5.70021 7.30208C5.7231 7.39391 5.77212 7.47525 5.84083 7.53743L5.91602 7.59309C5.85021 7.63249 5.79344 7.68659 5.75294 7.75422C5.68823 7.86237 5.66883 7.98946 5.69923 8.11163C5.72992 8.23415 5.80675 8.33767 5.91504 8.40263L8.14152 9.73755ZM9.44225 9.73364C9.04768 9.81405 8.63149 9.73835 8.27042 9.52174L6.04394 8.18682C5.99334 8.15628 5.95771 8.10806 5.94336 8.05108C5.92921 7.9939 5.93831 7.93393 5.96875 7.88312C5.99917 7.8325 6.04734 7.79686 6.10449 7.78254C6.16207 7.76814 6.2218 7.77659 6.27245 7.80695L7.37007 8.46611C7.42967 8.5019 7.50722 8.48249 7.54291 8.42314C7.57862 8.3636 7.55843 8.286 7.49897 8.25029L6.04492 7.37825C5.99403 7.34766 5.95768 7.2988 5.94336 7.24154C5.92927 7.18434 5.93827 7.12433 5.96875 7.07358C6.03176 6.96905 6.16794 6.93552 6.27245 6.99838L7.72748 7.87042C7.78709 7.90608 7.86365 7.88682 7.89934 7.82746C7.93495 7.76793 7.9158 7.69127 7.85638 7.65559L6.41893 6.79234L6.07129 6.58433C6.02057 6.55387 5.98409 6.50573 5.96973 6.4486C5.95558 6.39136 5.96463 6.33135 5.99512 6.28063C6.02556 6.22974 6.07441 6.19437 6.13183 6.18005C6.18896 6.16576 6.24827 6.17421 6.29882 6.20446L8.08391 7.27572C8.14348 7.31148 8.22101 7.29203 8.25675 7.23275C8.29246 7.17321 8.27325 7.09561 8.21379 7.0599L6.75974 6.18786C6.70885 6.15735 6.67249 6.10841 6.65818 6.05115C6.64265 5.9885 6.65412 5.92426 6.69138 5.87049C6.75613 5.77711 6.89423 5.75235 6.99899 5.81483L9.22351 7.14974C9.27243 7.17881 9.33512 7.17172 9.37585 7.13217C9.41647 7.09267 9.42587 7.03042 9.39831 6.98081L8.93544 6.14783C8.88891 6.06432 8.89097 5.96156 8.94032 5.87928C8.9647 5.83864 8.99833 5.80588 9.03993 5.7826C9.12441 5.73616 9.23055 5.76687 9.27722 5.85096C9.80995 6.81074 10.0034 7.15991 10.0829 7.29134C10.088 7.31652 10.0902 7.31903 10.158 7.41536C10.1803 7.44706 10.2045 7.47799 10.2293 7.50813C10.6206 7.98211 10.6667 8.57924 10.3514 9.10476C10.1562 9.43023 9.83285 9.65389 9.44225 9.73364Z" fill="#4CAF4F"/>
</svg>
