<svg width="15" height="12" viewBox="0 0 15 12" fill="none" xmlns="http://www.w3.org/2000/svg">
<path d="M2.25391 0.166992H11.7686C12.322 0.166992 12.8528 0.386994 13.2441 0.77832C13.6354 1.16964 13.8555 1.7005 13.8555 2.25391V8.76367C13.8555 9.31707 13.6354 9.84794 13.2441 10.2393C12.8528 10.6306 12.322 10.8506 11.7686 10.8506H2.25391C1.70049 10.8506 1.16965 10.6306 0.77832 10.2393C0.387 9.84793 0.166992 9.31709 0.166992 8.76367V2.25391C0.166992 1.70049 0.386995 1.16965 0.77832 0.77832C1.16965 0.386995 1.70049 0.166992 2.25391 0.166992ZM0.834961 8.76367C0.834961 9.13999 0.983904 9.50148 1.25 9.76758C1.5161 10.0337 1.87758 10.1826 2.25391 10.1826H11.7686C12.1449 10.1826 12.5064 10.0337 12.7725 9.76758C13.0385 9.50148 13.1875 9.13998 13.1875 8.76367V3.83984H0.834961V8.76367ZM9.51562 7.17773H11.0176C11.1061 7.17773 11.1913 7.21376 11.2539 7.27637C11.3162 7.33888 11.3515 7.42343 11.3516 7.51172C11.3516 7.6002 11.3164 7.68545 11.2539 7.74805C11.1913 7.81066 11.1061 7.8457 11.0176 7.8457H9.51562C9.42711 7.8457 9.3419 7.81061 9.2793 7.74805C9.21668 7.68543 9.18164 7.60027 9.18164 7.51172C9.18171 7.42334 9.21684 7.3389 9.2793 7.27637C9.34191 7.21376 9.42708 7.17773 9.51562 7.17773ZM2.25391 0.834961C1.87758 0.834961 1.5161 0.983898 1.25 1.25C0.983898 1.5161 0.834961 1.87758 0.834961 2.25391V3.17188H13.1875V2.25391C13.1875 1.8776 13.0385 1.5161 12.7725 1.25C12.5064 0.983899 12.1449 0.834961 11.7686 0.834961H2.25391Z" fill="#4CAF4F" stroke="#4CAF4F" stroke-width="0.333867"/>
</svg>
